<?xml version="1.0" standalone="no"?>
<!DOCTYPE svg PUBLIC "-//W3C//DTD SVG 20010904//EN"
 "http://www.w3.org/TR/2001/REC-SVG-20010904/DTD/svg10.dtd">
<svg version="1.0" xmlns="http://www.w3.org/2000/svg"
 width="512.000000pt" height="512.000000pt" viewBox="0 0 512.000000 512.000000"
 preserveAspectRatio="xMidYMid meet">
<metadata>
Created by potrace 1.11, written by Peter Selinger 2001-2013
</metadata>
<g transform="translate(0.000000,512.000000) scale(0.100000,-0.100000)"
fill="#000000" stroke="none">
<path d="M985 3244 c-184 -32 -312 -106 -409 -234 -39 -52 -90 -152 -103 -203
-41 -168 -46 -327 -16 -487 4 -19 7 -37 8 -40 7 -41 76 -192 99 -216 6 -6 20
-24 31 -40 55 -76 150 -146 249 -183 136 -51 411 -63 556 -26 150 39 275 133
342 257 13 24 25 45 28 48 3 3 17 40 32 82 l26 78 -117 35 c-64 20 -150 47
-191 59 -41 13 -76 23 -78 21 -1 -1 -4 -11 -6 -21 -13 -64 -52 -139 -94 -182
-55 -55 -94 -70 -190 -70 -156 0 -246 92 -267 273 -8 71 -9 192 -1 245 10 76
15 92 35 134 45 93 121 145 224 153 119 10 210 -39 256 -136 28 -60 26 -60
106 -41 22 5 96 21 165 36 69 15 129 30 133 34 10 9 -40 122 -83 187 -82 124
-220 210 -380 238 -75 14 -276 13 -355 -1z"/>
<path d="M2435 3245 c-211 -34 -349 -136 -398 -295 -17 -56 -20 -177 -5 -186
5 -3 6 -9 3 -14 -11 -18 41 -107 95 -161 86 -87 192 -132 458 -198 190 -47
232 -77 244 -170 7 -58 -51 -124 -123 -141 -91 -22 -187 -1 -247 54 -30 26
-60 84 -70 133 -9 44 8 42 -237 28 -111 -6 -147 -9 -187 -14 -8 -1 19 -129 32
-153 6 -10 10 -23 10 -29 0 -20 89 -146 126 -178 93 -82 230 -120 449 -126
317 -8 504 70 617 256 60 99 76 243 38 354 -8 22 -14 43 -15 46 0 4 -15 28
-34 54 -46 64 -135 127 -230 164 -75 29 -307 94 -379 106 -54 9 -116 37 -138
63 -18 20 -20 30 -13 61 5 20 9 39 9 42 0 3 18 16 41 28 75 42 211 26 261 -32
19 -21 55 -84 57 -99 1 -5 1 -13 1 -18 0 -7 24 -9 68 -6 76 5 309 19 333 20
15 0 15 6 3 61 -24 103 -57 165 -120 225 -62 59 -112 85 -212 111 -97 26 -321
33 -437 14z"/>
<path d="M3895 3249 c-94 -14 -188 -46 -245 -84 -57 -38 -110 -86 -110 -98 0
-5 -6 -15 -14 -23 -30 -29 -58 -127 -59 -201 0 -97 30 -175 93 -241 86 -89
198 -141 435 -202 184 -47 215 -60 252 -105 39 -47 42 -96 8 -146 -32 -49 -70
-68 -149 -76 -140 -13 -236 57 -272 200 -1 4 -2 14 -3 23 -1 13 -11 14 -58 10
-32 -3 -114 -8 -183 -12 -69 -4 -136 -8 -150 -9 -21 -1 -25 -6 -23 -31 6 -101
67 -234 142 -311 70 -72 149 -108 306 -139 53 -10 308 -13 360 -4 28 4 65 11
83 14 159 29 319 159 368 298 58 166 28 332 -82 441 -83 84 -224 143 -483 202
-80 19 -161 41 -179 50 -83 42 -79 130 7 175 34 17 148 15 193 -4 57 -24 118
-112 109 -159 -1 -4 29 -5 66 -3 38 3 122 8 188 11 163 8 168 9 161 43 -4 15
-8 37 -11 50 -10 55 -77 172 -118 208 -47 41 -161 97 -222 109 -22 5 -47 10
-55 12 -34 9 -299 10 -355 2z"/>
</g>
</svg>
